<?xml version="1.0" standalone="no"?><!DOCTYPE svg PUBLIC "-//W3C//DTD SVG 1.1//EN"   "http://www.w3.org/Graphics/SVG/1.1/DTD/svg11.dtd"><svg width="864pt" height="864pt" viewBox="0 0 864 864" version="1.1"    xmlns="http://www.w3.org/2000/svg" xmlns:xlink="http://www.w3.org/1999/xlink">  <defs>  </defs><g id="Group ID: 1">
   <path id="Path0" stroke-width="0.7" stroke="#FF0000" stroke-opacity="1" fill="#000000" fill-opacity="1" fill-rule="evenodd" stroke-linecap="round" stroke-linejoin="round" d="M395.4,358.9 C373.7,373.7 368.8,370.7 352,376.6 327.6,385.3 338.6,383.4 332,391.4 331.1,392.5 329.3,393.5 315.9,395.5 315.5,395.5 316.8,395.3 299.7,397.7 270.2,428.8 258.3,431.5 238.8,404.8 219.8,398.1 223,393.8 222,389.9 214.8,383.6 181.7,374.7 194.7,356.1 202.6,344.8 211,350.8 219.6,339.1 226.7,329.5 226,321.9 259.4,323.3 303.2,325.3 303.3,332.3 307.1,333.2 318.2,335.7 311.3,324.3 332.5,338.2 339.1,342.6 350.5,340.5 363.2,335.7 398.2,322.4 391,319.6 374,279.9 374,279.9 364.3,257.2 364.3,257.2 364.3,257.2 354.6,234.5 354.6,234.5 345.9,214 353.3,230.6 339.4,196.2 339.4,196.2 330.8,174.8 330.8,174.8 330.8,174.8 312.2,128.8 312.2,128.8 312.2,128.8 304.2,109 304.2,109 299.8,98 296.4,88 296.3,87.6 301.5,88.3 299.7,88.7 315.7,98.2 315.7,98.2 380.7,136.9 380.7,136.9 380.7,136.9 383,138.2 383,138.2 383.3,138.4 396.4,146.2 396.6,146.4 396.6,146.4 419.5,160.5 419.5,160.5 420.7,161.2 428.7,166 429.1,166.2 430.5,167.1 440.6,173.1 440.9,173.2 441.1,173.4 453.5,180.5 455.2,181.5 455.5,181.7 465.7,187.5 468.6,189.1 471.2,190.6 478.9,194.9 480.3,195.7 480.6,195.8 493.7,203.3 494,203.5 495.4,204.3 505.6,210.2 505.8,210.4 557,240.5 546.7,230.2 551.2,238.3 565.5,264.4 589.2,300.1 594.7,312 589.7,311 533.1,278.4 532.8,278.2 529,276.1 501.3,261.1 501.1,261 501.1,261 481.4,249.2 481.4,249.2 421.6,213.6 409.3,210.4 402.6,212.3 403.3,216.1 403.5,215.5 408,226.4 408,226.4 417.5,249.6 417.5,249.6 417.5,249.6 432.9,286.2 432.9,286.2 436.7,295.5 438.6,307 468.2,321.8 468.2,321.8 493.3,334.3 493.3,334.3 493.3,334.3 511.8,343.7 511.8,343.7 524.2,349.9 528.3,351 533.2,352.6 552.7,349.3 558.3,354.3 566.6,364 595.5,374.9 599.2,370.4 613.9,392.5 625.1,409.5 628.2,427.3 611.1,436.8 603,455.1 592.2,468.3 572.1,446.4 560.3,450.2 547.2,456.8 537.8,433.8 537.2,432.3 533.6,423 532.9,421.2 522.7,395.9 518.5,400.5 515.5,398.7 508.8,394.9 518.7,385.9 503.2,377.9 503,377.8 492.5,372.6 491.6,372.1 471.1,362 470,362 465.1,363.3 467.3,371.8 470.7,364.2 501.6,414.4 515.6,437 522.3,453.9 523.1,470.8 523.9,489.3 519.7,511.4 499.8,528.1 476.6,547.6 451.9,548.6 448.8,551.9 448.3,552.4 447.6,554.1 447.9,555.3 450,564.1 472.7,560.1 483.6,575.5 488.2,582 487.8,590.2 491,596.5 494.8,603.9 503.8,605.3 504.7,607.2 505.2,608.1 505.9,621.3 492.3,630.2 474.9,641.5 462.4,636 459.8,638.1 457.4,640 458.8,659 451.8,667.4 438.8,683.3 389.1,682.3 373.6,679 345.8,673.2 343.5,653 350.3,632 358.9,605.4 383.7,609 387.4,603.6 389,601.2 386.8,594.7 389.3,585.7 392,576.1 393.6,582 392.3,572.1 377,557.3 370.4,549.2 373.1,537.7 375.2,529.3 369.4,529.6 346.5,513.2 339.5,516.8 338.1,517.2 341,533 356.2,538.5 358.5,537.1 356.7,558.6 375.6,579.3 362.1,612.1 348.5,624.9 330.4,641.8 289.9,627.1 283.3,622.9 272.6,616.2 280.2,612.6 265.9,612.3 258.2,612.2 242.3,613.3 227.8,608.2 186,593.2 192.6,537.7 221.5,523 241.4,512.9 258,523.5 266,523.2 268.1,523.1 277.2,519.1 283.1,519.9 287.8,520.6 295.9,525.8 299.4,524.6 299.4,524.6 299.8,524.5 299.8,524.5 302.9,523.1 308.1,513.6 309.7,510.5 309.7,510.5 320.6,490.2 320.6,490.2 294,424.1 317.5,407.3 332,394.7 365.2,365.7 400.5,378.1 417.7,374.1 412.3,358.6 410.7,354.4 407.4,350.5 396.6,358.1 395.7,358.7 395.4,358.9 Z " />
   <path id="Path1" stroke-width="0.7" stroke="#FF0000" stroke-opacity="1" fill="#FFFFFF" fill-opacity="1" fill-rule="evenodd" stroke-linecap="round" stroke-linejoin="round" d="M394.6,590.7 C391.9,600.4 419.7,603.9 430.1,595.2 446.7,581.3 448.9,568.8 441.4,560.9 435.1,554.3 429,552.6 425.9,555.7 421.3,560.2 433,569.7 422.2,579.7 421.2,580.7 420.1,581 419,581.4 409.3,585.4 396.9,582.5 394.6,590.7 Z " />
   <path id="Path2" stroke-width="0.7" stroke="#FF0000" stroke-opacity="1" fill="#FFFFFF" fill-opacity="1" fill-rule="evenodd" stroke-linecap="round" stroke-linejoin="round" d="M415.6,503.8 C413.1,501.1 380.4,527.6 380.9,541.5 381.3,554.2 415.6,575.8 417.9,570.2 422.1,559.8 404.4,556.6 397.9,546.9 392.8,539.1 422,510.6 415.6,503.8 Z " />
   <path id="Path3" stroke-width="0.7" stroke="#FF0000" stroke-opacity="1" fill="#FFFFFF" fill-opacity="1" fill-rule="evenodd" stroke-linecap="round" stroke-linejoin="round" d="M346.6,551.6 C348,549.9 347.1,546.9 346.9,546.1 339.6,542.2 322.8,545.4 305.8,542.1 290.6,539.1 289.9,528.8 281.1,529.5 279.9,529.6 279.3,530.1 276.8,531.9 276.2,533.6 276.8,532.1 275.7,534.6 277.2,541.6 286.6,550.9 315.7,553.8 333,555.5 344.6,554 346.6,551.6 Z " />
   <path id="Path4" stroke-width="0.7" stroke="#FF0000" stroke-opacity="1" fill="#FFFFFF" fill-opacity="1" fill-rule="evenodd" stroke-linecap="round" stroke-linejoin="round" d="M332.3,534.4 C334.5,530.8 329.2,525.4 330.1,519.4 330.8,514.2 338.7,505.9 338.3,502.6 337.8,498.7 329.7,494.9 322.1,503.3 314.1,512.1 314.2,525.9 310.2,529 309.2,529.9 308.9,528.7 304.9,532.3 313.2,537.8 329.6,539.2 332.3,534.4 Z " />
   <path id="Path5" stroke-width="0.7" stroke="#FF0000" stroke-opacity="1" fill="#FFFFFF" fill-opacity="1" fill-rule="evenodd" stroke-linecap="round" stroke-linejoin="round" d="M336.7,477.3 C337.5,477.2 339,477.1 339.8,476.5 343.1,473.6 338,453.5 339.5,439.6 340.7,428.1 345.4,418 361.1,410.7 373.5,405 387.1,403.7 394.9,398.5 376.3,389.2 344.7,398 329.6,421.2 322.2,432.6 313.3,455.9 336.7,477.3 Z " />
   <path id="Path6" stroke-width="0.7" stroke="#FF0000" stroke-opacity="1" fill="#FFFFFF" fill-opacity="1" fill-rule="evenodd" stroke-linecap="round" stroke-linejoin="round" d="M532,398.9 C532,400.6 544.6,432.8 549.7,438.8 556.3,446.3 568.9,443.2 569,439.3 569,436.6 556.7,424.4 557.2,420.4 557.3,419.5 558.2,417.6 560,417.2 565.7,416 573.1,433.3 582.1,440.8 590.9,448.2 596.3,441.1 599.2,437.2 595.1,428 587.1,422 588.3,418.2 590.8,410.7 599.8,424.3 605.3,428.1 613.2,415.6 594.9,406.3 601.8,403.8 604.3,402.9 613.7,414 615.9,412.5 618.9,410.4 598.4,380.9 570.7,371.5 557.8,367.1 556.7,368.1 547.2,378 537.2,388.4 532.2,396.3 532,398.9 Z " />
   <path id="Path7" stroke-width="0.7" stroke="#FF0000" stroke-opacity="1" fill="#FFFFFF" fill-opacity="1" fill-rule="evenodd" stroke-linecap="round" stroke-linejoin="round" d="M251.5,404.9 C249.9,409.7 257.6,414.9 271.7,410.5 287.1,405.8 291.3,395 285.9,388.7 280.4,382.4 251.9,403.5 251.5,404.9 Z " />
   <path id="Path8" stroke-width="0.7" stroke="#FF0000" stroke-opacity="1" fill="#FFFFFF" fill-opacity="1" fill-rule="evenodd" stroke-linecap="round" stroke-linejoin="round" d="M230.6,390.5 C232.4,393.9 240.9,396.1 254.5,390.2 265.7,385.3 269.3,379.2 267.7,375.5 263.2,365.3 220,370.6 230.6,390.5 Z " />
   <path id="Path9" stroke-width="0.7" stroke="#FF0000" stroke-opacity="1" fill="#FFFFFF" fill-opacity="1" fill-rule="evenodd" stroke-linecap="round" stroke-linejoin="round" d="M435.5,315.3 C425.9,316.8 424.7,332.5 442.4,343.2 459.9,353.8 446.6,340.5 505.6,368.7 533.1,381.9 512.7,389.8 519.9,393.1 524.9,395.4 529.8,391 536.1,382.7 542.4,374.6 552.9,366.4 553,363.4 553.1,362.4 552.5,361.1 552,360.6 545,352.9 532.8,371.1 527.2,368.3 521.8,365.5 528.6,361.8 518,357.1 511.2,354.1 503.6,350.9 487.9,341.3 478.9,335.8 439,314.7 435.5,315.3 Z " />
   <path id="Path10" stroke-width="0.7" stroke="#FF0000" stroke-opacity="1" fill="#FFFFFF" fill-opacity="1" fill-rule="evenodd" stroke-linecap="round" stroke-linejoin="round" d="M305,348.9 C305.8,351.3 306.5,353.9 307.5,354.6 309,355.7 314.3,354.3 319.4,364.6 323.3,372.6 320.6,378.7 322.5,382.7 326.4,383.7 328.1,382.7 328.2,382.7 330.3,377.5 326.8,347.4 321.8,343.6 318,340.7 311.6,345.4 306.9,344.5 299.9,343.1 297,334.2 288.8,332.9 267.6,329.7 243.1,327.5 233.3,333.3 221.9,340 216.4,357.4 233.2,359.7 241.7,360.9 268.4,350.4 272.3,356.3 274.2,359.2 269.9,360.3 270.9,362.2 272.3,364.7 273.6,360 284.7,369.8 295.8,379.5 293.3,381.1 300.5,382.8 307.4,384.5 312.4,382.4 313.3,380.2 315.4,375.7 308,369.2 298.8,360.2 292.8,354.3 299.3,348.6 299.5,348.5 300,348.2 301.8,347.6 305,348.9 Z " />
   <path id="Path11" stroke-width="0.7" stroke="#FF0000" stroke-opacity="1" fill="#FFFFFF" fill-opacity="1" fill-rule="evenodd" stroke-linecap="round" stroke-linejoin="round" d="M226.3,368.3 C226.2,360.8 200.9,350.1 201.7,364.1 202.5,378.6 224.5,377.9 226.2,369.1 226.2,369.1 226.3,368.3 226.3,368.3 Z " />
   <path id="Path12" stroke-width="0.7" stroke="#FF0000" stroke-opacity="1" fill="#FFFFFF" fill-opacity="1" fill-rule="evenodd" stroke-linecap="round" stroke-linejoin="round" d="M341.4,371.3 C386.2,359.4 374.4,362.1 406.7,340 403.9,320.4 400.2,324.2 380.3,335.7 342.1,357.9 340.7,345.5 336,351.3 333.2,354.9 336.6,364.6 341.4,371.3 Z " />
   <path id="Path13" stroke-width="0.7" stroke="#FF0000" stroke-opacity="1" fill="#FFFFFF" fill-opacity="1" fill-rule="evenodd" stroke-linecap="round" stroke-linejoin="round" d="M352.5,201.4 C352.6,201.7 357.6,213.3 357.7,213.6 359.8,218.7 364.4,229.1 364.5,229.4 364.5,229.4 376.3,255.6 376.3,255.6 387.1,278.2 389.6,276.5 390.6,277.8 389.6,271.1 387.7,250.4 365.1,197.3 364.1,195 360.9,187.5 359.8,184.8 350.4,162.7 349.7,163.9 342.8,165.2 340.9,169.7 340.4,172.5 352.5,201.4 Z " />
   <path id="Path14" stroke-width="0.7" stroke="#FF0000" stroke-opacity="1" fill="#FFFFFF" fill-opacity="1" fill-rule="evenodd" stroke-linecap="round" stroke-linejoin="round" d="M437.4,194.8 C437.4,194.8 460.4,207.7 460.4,207.7 463.4,209.3 466.2,210.8 468.8,212.1 503.2,230.1 506.2,231.2 510.2,230.9 506.7,223.5 485.6,212.9 470.4,204.6 464.4,201.3 421.9,177.8 420.9,177.3 420.9,177.3 402.7,167.4 402.7,167.4 384.7,156.4 381.8,156.5 380,158.1 378.2,161.3 430.3,191.1 437.4,194.8 Z " />
   <path id="Path15" stroke-width="0.7" stroke="#FF0000" stroke-opacity="1" fill="#000000" fill-opacity="1" fill-rule="evenodd" stroke-linecap="round" stroke-linejoin="round" d="M593.8,396.7 C591.1,397.5 572.6,387.6 570.6,382 582.8,385.6 595.2,391.3 595.8,393.6 596.2,395 594.7,396.4 593.8,396.7 Z " />
   <path id="Path16" stroke-width="0.7" stroke="#FF0000" stroke-opacity="1" fill="#FFFFFF" fill-opacity="1" fill-rule="evenodd" stroke-linecap="round" stroke-linejoin="round" d="M209.1,568.9 C210.7,564.8 214.4,538.1 249,530.8 239.3,521 222.5,532.1 216.9,537.6 212.3,542.2 203.1,553.2 209.1,568.9 Z " />
   <path id="Path17" stroke-width="0.7" stroke="#FF0000" stroke-opacity="1" fill="#FFFFFF" fill-opacity="1" fill-rule="evenodd" stroke-linecap="round" stroke-linejoin="round" d="M357.3,654 C358.1,651.1 358.9,636.8 371.7,625.5 376.3,621.6 382.3,618 390.4,615.4 380.7,607.3 366.3,619 361.6,624.6 357.8,629.2 350.4,640.2 357.3,654 Z " />
   <path id="Path18" stroke-width="0.7" stroke="#FF0000" stroke-opacity="1" fill="#000000" fill-opacity="1" fill-rule="evenodd" stroke-linecap="round" stroke-linejoin="round" d="M591.7,408.3 C588.8,408.6 572.3,395.6 571.4,389.7 582.8,395.4 594,403.2 594.2,405.6 594.3,407 592.5,408.2 591.7,408.3 Z " />
   <path id="Path19" stroke-width="0.7" stroke="#FF0000" stroke-opacity="1" fill="#000000" fill-opacity="1" fill-rule="evenodd" stroke-linecap="round" stroke-linejoin="round" d="M576.6,413.5 C573.9,412.9 562.5,395.2 563.5,389.4 572.4,398.5 580.5,409.5 579.9,411.9 579.5,413.2 577.5,413.7 576.6,413.5 Z " />
</g>

</svg>
